<svg xmlns="http://www.w3.org/2000/svg" viewBox="0 0 174.0661 174.0784"><defs><style>.cls-1{fill:#8bd0e0;}.cls-2{fill:none;stroke:#8bd0e0;stroke-miterlimit:10;stroke-width:7px;}</style></defs><title>AimCurser</title><g id="Ebene_2" data-name="Ebene 2"><path class="cls-1" d="M3.5867,90.71a88.2423,88.2423,0,0,0,57.2084,81.8225c33.8041,12.6593,73.8583,1.8726,96.7629-25.9969,23.24-28.2781,26.9052-68.9637,7.9354-100.5486C146.6211,14.5642,109.5425-1.59,73.6641,5.2753,33.152,13.0268,3.9385,49.89,3.5867,90.71c-.0832,9.6547,14.9167,9.6635,15,0,.2574-29.87,19.009-57.706,47.4421-67.813a73.0746,73.0746,0,0,1,80.5053,22.0947c19.2835,23.134,21.4271,57.1963,6.0073,82.8707-15.3684,25.5886-46.165,39.5685-75.5523,33.6855A72.9471,72.9471,0,0,1,18.5867,90.71C18.5035,81.0625,3.5033,81.0394,3.5867,90.71Z" transform="translate(-3.5863 -3.7131)"/><path class="cls-2" d="M83.2191,73.2409,68.0414,99.5294a8.65,8.65,0,0,0,7.4909,12.9746h30.3554a8.65,8.65,0,0,0,7.4909-12.9746L98.2009,73.2409A8.65,8.65,0,0,0,83.2191,73.2409Z" transform="translate(-3.5863 -3.7131)"/></g></svg>