# Blender 3.5.0
# www.blender.org
mtllib HomeFuge_Astroid_L003.mtl
o Cube.001
v -8.743830 -9.850823 8.641796
v -20.158178 9.085803 8.288004
v -14.953620 -6.628944 -7.051091
v -10.323889 6.481819 -10.197035
v 8.828073 -9.770020 8.654390
v 1.809542 12.245451 10.806590
v 12.511787 -15.447612 -12.525291
v 9.482105 16.249483 -15.584174
v -10.529122 -12.040789 0.059120
v -13.851261 2.607230 8.796077
v -11.774211 0.676383 1.170362
v -11.636765 1.996670 -7.095943
v -2.531261 -9.385801 -12.306491
v -0.150693 12.342886 -10.696498
v 17.508463 0.396483 -16.363070
v 10.552541 -11.985771 0.202642
v 10.724376 12.298688 0.164972
v 2.749724 6.071794 20.325649
v 0.020836 -12.057188 10.494786
v -14.899678 9.539853 13.872083
v -14.676987 0.453468 -0.014005
v 1.444538 4.101064 -10.726442
v 7.883085 4.082183 3.808991
v -4.577153 0.232646 20.861120
v 1.564073 -7.220140 -2.926496
v -1.132162 19.059912 2.101845
vn -0.3114 -0.6781 0.6657
vn 0.9455 -0.2467 0.2126
vn 0.3976 -0.9055 0.1483
vn -0.7392 0.4532 -0.4981
vn -0.4646 0.7689 -0.4392
vn -0.2847 0.1939 -0.9388
vn 0.8624 0.4593 0.2127
vn -0.3608 0.1339 -0.9230
vn -0.9150 -0.3022 0.2674
vn 0.9780 0.1251 0.1668
vn 0.2983 -0.4893 0.8195
vn -0.5166 0.6942 0.5012
vn -0.7440 -0.4643 0.4805
vn -0.2500 0.9343 0.2541
vn -0.1454 -0.5335 -0.8332
vn -0.8956 -0.2954 0.3325
vn 0.1761 -0.9323 -0.3158
vn -0.1380 0.9784 0.1540
vn 0.5001 0.7558 0.4227
vn -0.7063 -0.6696 0.2299
vn 0.8922 0.4496 0.0424
vn -0.3556 -0.1346 -0.9249
vn -0.3602 -0.8366 -0.4126
vn -0.3455 -0.8700 0.3517
vn -0.7794 -0.3262 0.5349
vn 0.9050 0.0557 0.4217
vn -0.1582 -0.9230 -0.3508
vn 0.4111 0.7920 -0.4515
vn -0.8599 0.4906 0.1409
vn -0.0969 -0.2053 -0.9739
vn 0.7664 0.0198 0.6421
vn -0.2913 0.1956 -0.9364
vn -0.9099 -0.3752 0.1770
vn 0.9478 0.1609 0.2752
vn 0.4371 -0.4787 0.7614
vn 0.0407 0.6285 0.7768
vn -0.5946 -0.5316 0.6032
vn 0.4036 0.8225 -0.4007
vn -0.0460 -0.0053 -0.9989
vn -0.8887 0.3401 -0.3074
vn -0.4980 -0.8583 0.1234
vn -0.9530 0.3013 0.0323
vn -0.0135 0.7851 0.6192
vn 0.2033 0.7427 -0.6380
vn 0.8890 -0.1103 0.4444
vn -0.4254 -0.0791 -0.9016
vn 0.3799 -0.9238 0.0474
vn -0.5041 -0.8499 0.1536
vt 0.214397 0.882097
vt 0.647145 0.882813
vt 0.717187 0.809435
vt 0.951699 0.917039
vt 0.717334 0.915204
vt 0.214397 0.962555
vt 0.711410 0.935252
vt 0.239067 0.569874
vt 0.992643 0.668865
vt 0.485065 0.848804
vt 0.136547 0.853254
vt 0.481994 0.781390
vt 0.940959 0.193794
vt 0.591839 0.785525
vt 0.882163 0.254081
vt 0.441580 0.683077
vt 0.927319 0.083995
vt 0.926370 0.291451
vt 0.981181 0.187283
vt 0.591839 0.651357
vt 0.082240 0.902099
vt 0.258844 0.414834
vt 0.674466 0.915204
vt 0.208039 0.916898
vt 0.684924 0.835167
vt 0.252040 0.581360
vt 0.536799 0.880976
vt 0.982303 0.973207
vt 0.259806 0.581360
vt 0.252040 0.618844
vt 0.747019 0.795985
vt 0.674037 0.968532
vt 0.511611 0.850573
vt 0.674271 0.915204
vt 0.996743 0.291451
vt 0.972971 0.000000
vt 0.717334 0.886509
vt 0.149810 0.958478
vt 0.441580 0.863052
vt 0.927319 0.187283
vt 0.982261 0.291451
vt 0.968444 0.620930
vt 0.239067 0.474299
vt 0.766123 0.966547
vt 0.128773 0.851045
vt 0.972971 0.123822
vt 0.510383 0.647552
vt 0.465986 0.740829
vt 0.934488 0.232993
vt 0.946250 0.123822
vt 0.882396 0.193794
vt 0.926370 0.329840
vt 0.580217 0.723634
vt 0.842075 0.290592
vt 0.566598 0.832045
vt 0.609450 0.892578
vt 0.179095 0.855782
vt 0.479440 0.804190
vt 0.536799 0.953965
vt 0.982303 0.900731
vt 0.684957 0.795985
vt 0.926370 0.321446
vt 0.239067 0.586447
vt 0.708003 0.870789
vt 0.711410 0.988114
vt 0.968848 0.975720
vt 0.259806 0.513003
vt 0.128773 0.958349
vt 0.766123 0.862691
vt 0.992643 0.590262
vt 0.258844 0.513003
vt 0.545666 0.750514
vt 0.615776 0.815383
vt 0.545591 0.848804
vt 0.857459 0.326001
vt 0.147219 0.918386
vt 0.983339 0.244071
vt 0.447391 0.930977
vt 0.982261 0.356717
vt 0.926370 0.224846
s 0
usemtl Astroid
f 24/73/1 1/2/1 19/56/1
f 15/47/2 16/48/2 7/16/2
f 25/76/3 1/1/3 9/24/3
f 11/27/4 20/59/4 26/78/4
f 4/10/5 26/78/5 14/39/5
f 15/44/6 13/37/6 22/69/6
f 23/72/7 6/14/7 18/55/7
f 12/32/8 13/34/8 3/7/8
f 1/2/9 21/64/9 9/23/9
f 23/72/10 5/12/10 16/48/10
f 18/55/11 19/58/11 5/12/11
f 6/15/12 24/75/12 18/54/12
f 20/61/13 10/25/13 24/73/13
f 14/40/14 17/50/14 8/19/14
f 4/8/15 22/67/15 12/29/15
f 21/64/16 3/5/16 9/23/16
f 25/76/17 5/11/17 19/57/17
f 11/26/18 12/30/18 21/63/18
f 26/80/19 6/15/19 17/51/19
f 2/3/20 21/64/20 10/25/20
f 17/53/21 15/47/21 8/20/21
f 22/68/22 8/21/22 15/45/22
f 13/38/23 9/24/23 3/6/23
f 7/18/24 25/77/24 13/35/24
f 24/73/25 10/25/25 1/2/25
f 15/47/26 23/72/26 16/48/26
f 25/76/27 19/57/27 1/1/27
f 11/28/28 2/4/28 20/60/28
f 4/10/29 11/27/29 26/78/29
f 15/46/30 7/17/30 13/36/30
f 23/72/31 17/53/31 6/14/31
f 12/31/32 22/69/32 13/37/32
f 1/2/33 10/25/33 21/64/33
f 23/72/34 18/55/34 5/12/34
f 18/55/35 24/74/35 19/58/35
f 6/15/36 20/62/36 24/75/36
f 20/61/37 2/3/37 10/25/37
f 14/41/38 26/79/38 17/52/38
f 4/9/39 14/42/39 22/70/39
f 21/65/40 12/32/40 3/7/40
f 25/77/41 16/49/41 5/13/41
f 11/27/42 4/10/42 12/33/42
f 26/80/43 20/62/43 6/15/43
f 2/4/44 11/28/44 21/66/44
f 17/53/45 23/72/45 15/47/45
f 22/71/46 14/43/46 8/22/46
f 13/38/47 25/76/47 9/24/47
f 7/18/48 16/49/48 25/77/48
