# Blender 3.5.0
# www.blender.org
mtllib HomeFuge_Astroid_L002.mtl
o Cube.003
v -4.646664 -8.971185 4.521080
v -17.913609 10.594159 14.210896
v -14.884546 -10.306698 -7.050471
v -7.128177 3.894124 -7.446175
v 6.062882 -12.869629 5.759979
v 4.743007 6.615804 4.607142
v 5.925730 -12.900313 -6.345294
v 10.975079 18.544357 -11.742955
v -7.652036 -15.089703 -0.237353
v -17.013861 2.780237 3.304546
v -13.144651 8.177153 -1.967024
v -10.461471 0.136541 -10.798415
v -0.281802 -6.657105 -6.378953
v -0.362550 9.704548 -7.740131
v 11.830129 -2.643890 -11.663705
v 5.915691 -10.715022 -0.125944
v 13.572468 22.882669 0.049205
v 3.097782 10.490025 26.720442
v 0.010383 -18.008770 10.697129
v -5.916273 6.837256 10.078956
v -14.714705 -0.113012 -0.070756
v -3.118223 -2.101388 -6.588448
v 18.806225 0.713476 0.594464
v -6.018883 -5.404020 16.690693
v -0.877275 -22.131943 -1.938147
v 2.563080 18.913435 2.659021
vn -0.8964 -0.4424 0.0286
vn 0.8887 -0.4321 0.1533
vn -0.6589 -0.7002 0.2748
vn -0.5922 0.6807 0.4311
vn -0.4127 0.4403 -0.7974
vn -0.3198 -0.2413 -0.9162
vn 0.3501 0.9268 -0.1363
vn 0.0497 -0.0150 -0.9987
vn -0.5962 -0.2895 0.7488
vn 0.6461 -0.7114 -0.2766
vn 0.6545 -0.0458 0.7547
vn -0.0706 0.9816 -0.1772
vn -0.5795 0.3911 0.7150
vn -0.3797 0.8922 -0.2446
vn 0.5372 0.2438 -0.8074
vn -0.7548 -0.3620 0.5471
vn 0.7150 -0.6779 0.1710
vn -0.6186 0.7520 -0.2278
vn 0.1640 0.1826 0.9694
vn -0.8898 0.3331 -0.3120
vn 0.8647 0.0330 -0.5012
vn -0.3220 -0.0172 -0.9466
vn 0.2037 -0.6864 -0.6981
vn -0.2542 -0.2577 -0.9322
vn -0.6896 -0.7122 0.1310
vn 0.6587 -0.7319 -0.1744
vn -0.8230 -0.0367 0.5669
vn 0.2791 0.9583 -0.0609
vn -0.3451 0.7487 -0.5660
vn -0.2964 -0.2996 -0.9069
vn 0.3104 0.0965 0.9457
vn 0.3409 -0.4421 -0.8296
vn -0.6893 -0.7109 0.1399
vn 0.6932 -0.4306 0.5779
vn 0.2783 -0.6217 0.7322
vn -0.8753 0.2355 0.4224
vn -0.0556 -0.8138 0.5785
vn -0.6476 0.6517 -0.3949
vn 0.0501 -0.1085 -0.9928
vn -0.9008 0.2555 -0.3512
vn 0.8560 -0.4781 -0.1964
vn -0.6868 -0.0360 -0.7260
vn 0.4494 0.2169 0.8666
vn -0.8170 0.0229 -0.5762
vn 0.9346 0.2136 -0.2845
vn -0.3214 -0.0165 -0.9468
vn -0.4546 -0.2295 -0.8606
vn 0.8313 -0.5240 0.1855
vt 0.408669 0.984330
vt 0.029368 0.901764
vt 0.768821 0.543290
vt 0.273663 0.919207
vt 0.004816 0.964335
vt 0.160309 0.853254
vt 0.913831 0.543290
vt 0.142413 0.776300
vt 0.872707 0.478310
vt 0.093967 0.803104
vt 0.408123 0.867648
vt 0.705656 0.306550
vt 0.241819 0.790651
vt 0.076706 0.850802
vt 0.845592 0.362978
vt 0.665484 0.195416
vt 0.151323 0.657024
vt 0.360291 0.975220
vt 0.000000 0.912349
vt 0.371386 0.984330
vt 0.213420 0.848205
vt 0.935836 0.949858
vt 0.082240 0.963215
vt 0.316144 0.978370
vt 0.834026 0.537518
vt 0.609450 0.927242
vt 0.839199 0.500318
vt 0.136548 0.799798
vt 0.897703 0.494159
vt 0.201688 0.789661
vt 0.856193 0.436149
vt 0.147519 0.730508
vt 0.015221 0.851045
vt 0.220905 0.729629
vt 0.078591 0.820641
vt 0.787113 0.364776
vt 0.735461 0.193794
vt 0.435534 0.737036
vt 0.054839 0.657024
vt 0.951699 0.804367
vt 0.013946 0.851045
vt 0.336336 0.919207
vt 0.136547 0.791976
vt 0.404573 0.930721
vt 0.674037 0.915204
vt 0.371386 0.811259
vt 0.796176 0.499311
vt 0.951699 0.892139
vt 0.261990 0.978370
vt 0.742115 0.360952
vt 0.058717 0.961960
vt 0.855977 0.529637
vt 0.176470 0.783866
vt 0.435534 0.930721
vt 0.255579 0.700554
vt 0.000000 0.800357
vt 0.655855 0.262851
vt 0.082240 0.873049
vt 0.121195 0.730049
vt 0.890912 0.875772
vt 0.316144 0.975220
vt 0.255579 0.849454
vt 0.135141 0.851045
vt 0.674037 0.988473
vt 0.789460 0.421111
vt 0.742115 0.260019
s 0
usemtl Astroid
f 24/58/1 1/2/1 19/41/1
f 15/33/2 16/35/2 7/14/2
f 19/42/3 9/18/3 25/61/3
f 11/26/4 20/45/4 26/64/4
f 11/27/5 14/31/5 4/9/5
f 15/34/6 13/30/6 22/53/6
f 23/54/7 6/11/7 18/38/7
f 3/6/8 22/53/8 13/30/8
f 1/2/9 21/51/9 9/19/9
f 23/56/10 5/10/10 16/35/10
f 5/10/11 24/59/11 19/43/11
f 20/46/12 18/38/12 6/11/12
f 20/48/13 10/22/13 24/60/13
f 8/15/14 26/65/14 17/36/14
f 4/8/15 22/53/15 12/28/15
f 21/51/16 3/5/16 9/19/16
f 25/63/17 5/10/17 19/43/17
f 21/52/18 4/9/18 12/29/18
f 26/66/19 6/12/19 17/37/19
f 11/27/20 10/25/20 2/3/20
f 8/17/21 23/55/21 15/34/21
f 14/32/22 15/34/22 22/53/22
f 13/30/23 9/21/23 3/6/23
f 7/13/24 25/62/24 13/30/24
f 24/58/25 10/23/25 1/2/25
f 15/33/26 23/56/26 16/35/26
f 19/44/27 1/1/27 9/20/27
f 11/27/28 2/3/28 20/47/28
f 11/27/29 26/65/29 14/31/29
f 15/34/30 7/13/30 13/30/30
f 23/57/31 17/37/31 6/12/31
f 3/6/32 12/28/32 22/53/32
f 1/2/33 10/23/33 21/51/33
f 23/56/34 18/39/34 5/10/34
f 5/10/35 18/39/35 24/59/35
f 20/48/36 24/60/36 18/40/36
f 20/49/37 2/4/37 10/24/37
f 8/15/38 14/31/38 26/65/38
f 4/8/39 14/32/39 22/53/39
f 21/52/40 12/29/40 3/7/40
f 25/63/41 16/35/41 5/10/41
f 21/52/42 11/27/42 4/9/42
f 26/66/43 20/50/43 6/12/43
f 11/27/44 21/52/44 10/25/44
f 8/16/45 17/37/45 23/57/45
f 14/32/46 8/17/46 15/34/46
f 13/30/47 25/62/47 9/21/47
f 7/14/48 16/35/48 25/63/48
