# Blender 3.5.0
# www.blender.org
mtllib HomeFuge_Astroid_L004.mtl
o Cube.002
v -6.497367 -8.076582 6.780763
v -15.627931 6.824809 6.483817
v -18.059402 -9.918384 -9.458658
v -7.604139 4.997443 -8.347446
v 7.595323 -7.993511 6.687942
v 1.921111 9.574494 8.485970
v 10.394965 -12.563944 -10.021229
v 8.089421 12.627435 -12.582348
v -11.947801 -17.277250 0.419677
v -10.536368 1.798054 6.919968
v -7.436379 15.016404 -4.576083
v -13.340230 2.119312 -9.507618
v -0.700130 -13.646719 -16.714615
v 2.523925 16.179321 -14.485072
v 26.572830 -0.293840 -22.335909
v 8.819277 -9.840313 0.026725
v 17.216335 16.144505 0.254231
v 2.869455 4.654172 15.917742
v 2.593945 -17.302488 14.678628
v -18.007015 12.326308 19.331575
v -17.706791 -0.433792 0.331578
v 1.673138 3.013195 -8.723549
v 13.191154 4.811760 5.489159
v -3.703399 -0.402859 28.939442
v 1.794456 -6.034148 -2.397864
v -0.382620 14.953890 1.668392
vn -0.7935 -0.5371 0.2861
vn 0.9026 -0.3583 0.2387
vn 0.6251 -0.6593 0.4180
vn -0.5267 0.7418 -0.4152
vn -0.6957 0.2632 -0.6684
vn 0.4642 0.3284 -0.8226
vn 0.4466 0.7712 0.4536
vn -0.3570 0.1362 -0.9241
vn -0.5861 -0.1963 0.7861
vn 0.8924 -0.3651 0.2652
vn 0.8668 -0.0389 0.4972
vn 0.3707 0.7955 0.4794
vn -0.7122 -0.6852 0.1525
vn -0.0827 0.9746 -0.2082
vn 0.0303 0.3211 -0.9465
vn -0.8947 -0.3042 0.3269
vn 0.5248 -0.6990 -0.4858
vn -0.4531 0.8909 0.0301
vn -0.0032 0.7845 0.6201
vn -0.5178 -0.4620 0.7200
vn 0.6202 0.7685 0.1573
vn -0.4825 -0.0294 -0.8754
vn -0.3519 -0.8418 -0.4094
vn -0.2113 -0.8473 0.4873
vn -0.8970 -0.3703 0.2413
vn 0.7311 -0.5160 0.4463
vn -0.3617 -0.7858 -0.5016
vn -0.3355 0.8587 0.3875
vn -0.0501 0.9965 0.0666
vn -0.4903 -0.2039 -0.8473
vn 0.3568 0.2843 0.8899
vn 0.0215 0.4299 -0.9026
vn -0.6084 -0.2594 0.7500
vn 0.6920 -0.2386 0.6813
vn 0.8977 -0.0360 0.4391
vn 0.3700 0.7876 0.4927
vn -0.6998 -0.6943 0.1677
vn 0.4937 0.8559 0.1538
vn -0.1207 -0.3914 -0.9123
vn -0.8874 0.3467 -0.3039
vn -0.5090 -0.8490 0.1419
vn -0.7058 0.2599 -0.6590
vn 0.3763 0.7849 0.4922
vn -0.8389 0.4712 -0.2724
vn 0.7750 -0.4703 -0.4222
vn 0.0549 -0.4033 -0.9134
vn 0.6423 -0.7175 0.2696
vn -0.5104 -0.8468 0.1495
vt 0.268149 0.737036
vt 0.133112 0.216009
vt 0.890912 0.682843
vt 0.462594 0.101933
vt 0.007166 0.288047
vt 0.441580 0.544128
vt 0.239067 0.653712
vt 0.001385 0.103101
vt 0.609450 0.647552
vt 0.091425 0.620676
vt 0.575822 0.497624
vt 0.375165 0.205427
vt 0.932469 0.362978
vt 0.574207 0.187352
vt 0.170184 0.414834
vt 0.441580 0.339007
vt 0.768821 0.590262
vt 0.913831 0.511353
vt 0.828920 0.193794
vt 0.609450 0.465892
vt 0.523502 0.362978
vt 0.842075 0.335117
vt 0.002164 0.520679
vt 0.108691 0.140350
vt 0.371386 0.743341
vt 0.063452 0.262098
vt 0.441580 0.237081
vt 0.516374 0.433683
vt 0.137245 0.657024
vt 0.580682 0.544702
vt 0.109267 0.000000
vt 0.994729 0.568016
vt 0.239067 0.502370
vt 0.371386 0.919207
vt 0.609450 0.362978
vt 0.464420 0.355392
vt 0.000000 0.578327
vt 0.828920 0.000000
vt 0.335167 0.509440
vt 0.768821 0.362978
vt 0.400746 0.260897
vt 0.923826 0.423115
vt 0.617730 0.337885
vt 0.742115 0.278406
vt 0.268118 0.127591
vt 0.628327 0.130164
vt 0.264112 0.227628
vt 0.441580 0.117339
vt 0.968444 0.590262
vt 0.014141 0.414834
vt 0.472715 0.019211
vt 0.000000 0.214000
vt 0.507742 0.595270
vt 0.647953 0.574712
vt 0.077157 0.538601
vt 0.655855 0.170753
vt 0.655855 0.254703
vt 0.264112 0.250730
vt 0.842075 0.193794
vt 0.201840 0.414834
vt 0.292023 0.000000
vt 0.655855 0.000000
vt 0.392559 0.252092
vt 0.146117 0.136426
vt 0.261990 0.842620
vt 0.994729 0.433021
vt 0.968444 0.804367
vt 0.511822 0.233536
s 0
usemtl Astroid
f 24/60/1 1/2/1 19/47/1
f 7/16/2 23/58/2 16/41/2
f 25/65/3 1/1/3 9/25/3
f 26/67/4 2/3/4 20/49/4
f 11/28/5 14/35/5 4/11/5
f 22/55/6 7/15/6 13/33/6
f 23/57/7 6/14/7 18/46/7
f 12/29/8 13/33/8 3/7/8
f 1/2/9 21/52/9 9/24/9
f 23/58/10 5/12/10 16/41/10
f 18/45/11 19/48/11 5/12/11
f 20/51/12 18/46/12 6/14/12
f 20/50/13 10/26/13 24/60/13
f 8/21/14 26/68/14 17/43/14
f 4/10/15 22/55/15 12/29/15
f 21/52/16 3/8/16 9/24/16
f 25/63/17 5/12/17 19/48/17
f 21/53/18 4/11/18 12/30/18
f 26/68/19 6/14/19 17/43/19
f 2/5/20 21/52/20 10/26/20
f 8/19/21 23/56/21 15/38/21
f 22/54/22 8/20/22 15/40/22
f 13/31/23 9/24/23 3/8/23
f 7/18/24 25/66/24 13/32/24
f 24/60/25 10/26/25 1/2/25
f 7/16/26 15/39/26 23/58/26
f 25/64/27 19/47/27 1/2/27
f 26/68/28 11/27/28 2/4/28
f 11/27/29 26/68/29 14/36/29
f 22/54/30 15/40/30 7/17/30
f 23/57/31 17/43/31 6/14/31
f 12/29/32 22/55/32 13/33/32
f 1/2/33 10/26/33 21/52/33
f 23/58/34 18/45/34 5/12/34
f 18/45/35 24/61/35 19/48/35
f 20/51/36 24/62/36 18/46/36
f 20/50/37 2/5/37 10/26/37
f 8/21/38 14/36/38 26/68/38
f 4/10/39 14/37/39 22/55/39
f 21/53/40 12/30/40 3/9/40
f 25/66/41 16/42/41 5/13/41
f 21/53/42 11/28/42 4/11/42
f 26/68/43 20/51/43 6/14/43
f 2/6/44 11/28/44 21/53/44
f 8/22/45 17/44/45 23/59/45
f 22/55/46 14/37/46 8/23/46
f 13/34/47 25/65/47 9/25/47
f 7/18/48 16/42/48 25/66/48
