# Blender 3.5.0
# www.blender.org
mtllib FudgeMultyObjectTest.mtl
o ShipBody
v 3.639932 -0.866026 2.034251
v -3.639932 -0.866026 2.034250
v 3.639932 -0.000000 2.534251
v -3.639932 -0.000001 2.534250
v 3.639932 0.866025 2.034251
v -3.639932 0.866024 2.034251
v 3.639932 -0.866025 -0.000000
v -3.639932 -0.866026 -0.000000
v 3.639932 0.866026 0.000000
v -3.639932 0.866025 0.000000
v 3.639932 -0.866024 -2.034251
v -3.639932 -0.866025 -2.034251
v 3.639932 0.000001 -2.534250
v -3.639932 0.000000 -2.534251
v 3.639932 0.866026 -2.034250
v -3.639932 0.866026 -2.034251
vn -0.0000 -1.0000 -0.0000
vn -0.0000 -0.5000 0.8660
vn -0.0000 0.5000 0.8660
vn -1.0000 -0.0000 -0.0000
vn 1.0000 -0.0000 -0.0000
vn -0.0000 1.0000 -0.0000
vn -0.0000 -0.5000 -0.8660
vn -0.0000 0.5000 -0.8660
vt 0.666667 0.500000
vt 0.957846 0.130000
vt 0.666667 1.000000
vt 0.457846 0.130000
vt 0.500000 0.500000
vt 0.750000 0.010000
vt 0.500000 1.000000
vt 0.250000 0.010000
vt 0.333333 0.500000
vt 0.542154 0.130000
vt 0.042154 0.130000
vt 0.333333 1.000000
vt 0.800450 0.500000
vt 0.957846 0.322649
vt 0.800450 1.000000
vt 0.457846 0.322649
vt 0.199549 0.500000
vt 0.542154 0.322649
vt 0.042154 0.322649
vt 0.199549 1.000000
vt 0.666667 0.500000
vt 0.957846 0.130000
vt 0.666667 1.000000
vt 0.457846 0.130000
vt 0.500000 0.500000
vt 0.750000 0.010000
vt 0.500000 1.000000
vt 0.250000 0.010000
vt 0.542154 0.130000
vt 0.333333 0.500000
vt 0.042154 0.130000
vt 0.333333 1.000000
s 0
f 7/13/1 2/3/1 8/15/1
f 3/5/2 2/3/2 1/1/2
f 5/9/3 4/7/3 3/5/3
f 2/4/4 6/11/4 10/19/4
f 5/10/5 1/2/5 7/14/5
f 9/17/6 6/12/6 5/9/6
f 8/15/1 11/21/1 7/13/1
f 12/23/7 13/25/7 11/21/7
f 13/25/8 16/32/8 15/30/8
f 10/19/4 14/28/4 12/24/4
f 7/14/5 13/26/5 15/29/5
f 15/30/6 10/20/6 9/17/6
f 7/13/1 1/1/1 2/3/1
f 3/5/2 4/7/2 2/3/2
f 5/9/3 6/12/3 4/7/3
f 10/19/4 8/16/4 2/4/4
f 2/4/4 4/8/4 6/11/4
f 7/14/5 9/18/5 5/10/5
f 5/10/5 3/6/5 1/2/5
f 9/17/6 10/20/6 6/12/6
f 8/15/1 12/23/1 11/21/1
f 12/23/7 14/27/7 13/25/7
f 13/25/8 14/27/8 16/32/8
f 12/24/4 8/16/4 10/19/4
f 10/19/4 16/31/4 14/28/4
f 15/29/5 9/18/5 7/14/5
f 7/14/5 11/22/5 13/26/5
f 15/30/6 16/32/6 10/20/6
o ShipBody.001
v -0.351993 0.806127 0.351993
v -0.351993 1.510112 0.351993
v -0.351992 0.806127 -0.351992
v -0.351992 1.510112 -0.351992
v 0.351992 0.806127 0.351993
v 0.351992 1.510112 0.351993
v 0.351992 0.806127 -0.351992
v 0.351992 1.510112 -0.351992
v 0.157970 0.965672 0.192448
v 0.157970 1.350567 0.192448
v 0.157970 0.965672 -0.192447
v 0.157970 1.350567 -0.192447
v 1.812397 0.965672 0.192448
v 1.812397 1.350567 0.192448
v 1.812397 0.965672 -0.192447
v 1.812397 1.350567 -0.192447
vn -1.0000 -0.0000 -0.0000
vn -0.0000 -0.0000 -1.0000
vn 1.0000 -0.0000 -0.0000
vn -0.0000 -0.0000 1.0000
vn -0.0000 -1.0000 -0.0000
vn -0.0000 1.0000 -0.0000
vt 0.375000 0.000000
vt 0.375000 1.000000
vt 0.125000 0.750000
vt 0.625000 0.000000
vt 0.625000 1.000000
vt 0.875000 0.750000
vt 0.125000 0.500000
vt 0.375000 0.250000
vt 0.625000 0.250000
vt 0.875000 0.500000
vt 0.375000 0.750000
vt 0.625000 0.750000
vt 0.375000 0.500000
vt 0.625000 0.500000
vt 0.375000 0.000000
vt 0.375000 1.000000
vt 0.125000 0.750000
vt 0.625000 0.000000
vt 0.625000 1.000000
vt 0.875000 0.750000
vt 0.125000 0.500000
vt 0.375000 0.250000
vt 0.625000 0.250000
vt 0.875000 0.500000
vt 0.375000 0.750000
vt 0.625000 0.750000
vt 0.375000 0.500000
vt 0.625000 0.500000
s 0
f 18/36/9 19/40/9 17/33/9
f 19/40/10 24/46/10 23/45/10
f 24/46/11 21/43/11 23/45/11
f 22/44/12 17/34/12 21/43/12
f 23/45/13 17/35/13 19/39/13
f 20/42/14 22/44/14 24/46/14
f 26/50/9 27/54/9 25/47/9
f 28/55/10 31/59/10 27/54/10
f 32/60/11 29/57/11 31/59/11
f 30/58/12 25/48/12 29/57/12
f 31/59/13 25/49/13 27/53/13
f 28/56/14 30/58/14 32/60/14
f 18/36/9 20/41/9 19/40/9
f 19/40/10 20/41/10 24/46/10
f 24/46/11 22/44/11 21/43/11
f 22/44/12 18/37/12 17/34/12
f 23/45/13 21/43/13 17/35/13
f 20/42/14 18/38/14 22/44/14
f 26/50/9 28/55/9 27/54/9
f 28/55/10 32/60/10 31/59/10
f 32/60/11 30/58/11 29/57/11
f 30/58/12 26/51/12 25/48/12
f 31/59/13 29/57/13 25/49/13
f 28/56/14 26/52/14 30/58/14
o ShipBody.002
v -0.351993 0.806126 2.002360
v -0.351993 1.510111 2.002360
v -0.351993 0.806126 1.298375
v -0.351993 1.510111 1.298375
v 0.351992 0.806126 2.002360
v 0.351992 1.510111 2.002360
v 0.351992 0.806126 1.298375
v 0.351992 1.510111 1.298376
v 0.157970 0.965672 1.842815
v 0.157970 1.350566 1.842815
v 0.157970 0.965672 1.457921
v 0.157970 1.350566 1.457921
v 1.812396 0.965671 1.842815
v 1.812396 1.350566 1.842816
v 1.812396 0.965672 1.457921
v 1.812396 1.350566 1.457921
vn -1.0000 -0.0000 -0.0000
vn -0.0000 -0.0000 -1.0000
vn 1.0000 -0.0000 -0.0000
vn -0.0000 -0.0000 1.0000
vn -0.0000 -1.0000 -0.0000
vn -0.0000 1.0000 -0.0000
vt 0.375000 0.000000
vt 0.375000 1.000000
vt 0.125000 0.750000
vt 0.625000 0.000000
vt 0.625000 1.000000
vt 0.875000 0.750000
vt 0.375000 0.250000
vt 0.125000 0.500000
vt 0.625000 0.250000
vt 0.875000 0.500000
vt 0.375000 0.750000
vt 0.625000 0.750000
vt 0.375000 0.500000
vt 0.625000 0.500000
vt 0.375000 0.000000
vt 0.125000 0.750000
vt 0.375000 1.000000
vt 0.625000 0.000000
vt 0.625000 1.000000
vt 0.875000 0.750000
vt 0.375000 0.250000
vt 0.125000 0.500000
vt 0.625000 0.250000
vt 0.875000 0.500000
vt 0.375000 0.750000
vt 0.625000 0.750000
vt 0.375000 0.500000
vt 0.625000 0.500000
s 0
f 33/61/15 36/69/15 35/67/15
f 36/69/16 39/73/16 35/67/16
f 40/74/17 37/71/17 39/73/17
f 38/72/18 33/62/18 37/71/18
f 39/73/19 33/63/19 35/68/19
f 36/70/20 38/72/20 40/74/20
f 42/78/15 43/81/15 41/75/15
f 44/83/16 47/87/16 43/81/16
f 48/88/17 45/85/17 47/87/17
f 46/86/18 41/77/18 45/85/18
f 43/82/19 45/85/19 41/76/19
f 44/84/20 46/86/20 48/88/20
f 33/61/15 34/64/15 36/69/15
f 36/69/16 40/74/16 39/73/16
f 40/74/17 38/72/17 37/71/17
f 38/72/18 34/65/18 33/62/18
f 39/73/19 37/71/19 33/63/19
f 36/70/20 34/66/20 38/72/20
f 42/78/15 44/83/15 43/81/15
f 44/83/16 48/88/16 47/87/16
f 48/88/17 46/86/17 45/85/17
f 46/86/18 42/79/18 41/77/18
f 43/82/19 47/87/19 45/85/19
f 44/84/20 42/80/20 46/86/20
