# Blender 3.5.0
# www.blender.org
mtllib HomeFudge_Head.mtl
o GattlingGun.BodyAndBarrel
v -1.415455 -0.428953 1.396534
v -2.682050 1.438047 0.756622
v 1.377613 -0.428953 1.396534
v 1.377613 1.438047 0.756622
v -1.997458 0.479091 1.396534
v 1.377613 0.479091 1.396534
v -1.415455 -0.428953 -1.396534
v -2.682050 1.438047 -0.756622
v 1.377613 -0.428953 -1.396534
v 1.377613 1.438047 -0.756622
v -1.997458 0.479091 -1.396534
v 1.377613 0.479091 -1.396534
v 0.700382 1.156321 0.000000
v 4.508552 0.832132 -0.000000
v 0.700382 0.140474 -0.586499
v 4.508552 0.302569 -0.305744
v 0.700382 0.140474 0.586499
v 4.508552 0.302569 0.305744
v 4.371716 0.140474 -0.586499
v 4.371716 1.156320 -0.000000
v 4.371716 0.140474 0.586499
v 6.787096 0.302568 -0.305744
v 6.787096 0.832132 -0.000000
v 6.787096 0.302568 0.305744
vn 1.0000 -0.0000 -0.0000
vn -0.0000 0.5551 0.8318
vn -0.8419 -0.5396 -0.0000
vn -0.0000 -1.0000 -0.0000
vn -0.0000 -0.0000 1.0000
vn -0.8139 -0.5810 -0.0000
vn -0.0000 1.0000 -0.0000
vn -0.0000 0.5551 -0.8318
vn -0.0000 -0.0000 -1.0000
vn -0.0000 0.5000 -0.8660
vn -0.0000 0.5000 0.8660
vn 0.7641 0.3225 -0.5586
vn 0.7641 -0.6451 -0.0000
vn 0.7641 0.3225 0.5586
vt 0.599657 0.753513
vt 0.599076 0.715422
vt 0.593901 0.724577
vt 0.146499 0.711827
vt 0.611978 0.714718
vt 0.612350 0.753513
vt 0.154996 0.708915
vt 0.612350 0.724577
vt 0.597303 0.719815
vt 0.150632 0.711827
vt 0.612207 0.718912
vt 0.586571 0.711875
vt 0.599657 0.740820
vt 0.586850 0.723168
vt 0.593901 0.731454
vt 0.146499 0.699116
vt 0.612350 0.740820
vt 0.154996 0.702028
vt 0.612350 0.731454
vt 0.585202 0.716705
vt 0.597012 0.736693
vt 0.150632 0.699116
vt 0.612350 0.736693
vt 0.000137 0.685548
vt 0.657107 0.685548
vt 0.999863 0.425524
vt 0.718622 0.561189
vt 0.718622 0.509400
vt 0.657382 0.425524
vt 0.219127 0.685548
vt 0.828440 0.592374
vt 0.771542 0.425524
vt 0.438117 0.685548
vt 0.885702 0.425524
vt 0.828440 0.478214
vt 0.219127 0.000137
vt 0.868043 0.644789
vt 0.657382 0.584967
vt 0.000137 0.000137
vt 0.657107 0.000138
vt 0.657382 0.485622
vt 0.438117 0.000137
vt 0.868043 0.425799
vt 0.657382 0.702144
vt 0.771542 0.000137
vt 0.756248 0.645064
vt 0.999863 0.000137
vt 0.657382 0.000137
vt 0.756248 0.759224
vt 0.885702 0.000137
s 0
usemtl SpaceShip1
f 12/22/1 4/7/1 6/10/1
f 9/16/1 6/10/1 3/4/1
f 4/8/2 5/9/2 6/11/2
f 1/2/3 11/20/3 7/12/3
f 7/13/4 3/6/4 1/1/4
f 6/11/5 1/2/5 3/5/5
f 5/9/6 8/14/6 11/20/6
f 10/19/7 2/3/7 4/8/7
f 11/21/8 10/19/8 12/23/8
f 7/13/9 12/23/9 9/17/9
f 20/39/10 15/30/10 13/24/10
f 19/36/4 17/33/4 15/30/4
f 18/34/11 23/47/11 14/26/11
f 21/42/11 13/25/11 17/33/11
f 14/27/12 19/37/12 20/38/12
f 18/35/13 19/37/13 16/31/13
f 18/35/14 20/41/14 21/43/14
f 22/44/1 23/46/1 24/49/1
f 16/32/4 24/50/4 18/34/4
f 14/29/10 22/45/10 16/32/10
f 12/22/1 10/18/1 4/7/1
f 9/16/1 12/22/1 6/10/1
f 4/8/2 2/3/2 5/9/2
f 1/2/3 5/9/3 11/20/3
f 7/13/4 9/17/4 3/6/4
f 6/11/5 5/9/5 1/2/5
f 5/9/6 2/3/6 8/14/6
f 10/19/7 8/15/7 2/3/7
f 11/21/8 8/15/8 10/19/8
f 7/13/9 11/21/9 12/23/9
f 20/39/10 19/36/10 15/30/10
f 19/36/4 21/42/4 17/33/4
f 18/34/11 24/50/11 23/47/11
f 21/42/11 20/40/11 13/25/11
f 14/27/12 16/31/12 19/37/12
f 18/35/13 21/43/13 19/37/13
f 18/35/14 14/28/14 20/41/14
f 16/32/4 22/45/4 24/50/4
f 14/29/10 23/48/10 22/45/10
