# Blender 3.5.0
# www.blender.org
mtllib HomeFudge_Base.mtl
o Cylinder.007
v 0.039175 0.000000 3.476607
v -2.991243 -0.000000 1.772230
v 3.030418 0.000000 1.704377
v 0.029211 0.306181 3.102077
v -2.230379 0.306181 1.831233
v 2.259588 0.306181 1.780639
v -3.010830 -0.000000 0.000000
v -2.236355 0.306181 1.300938
v 2.253613 0.306181 1.250344
v 0.008629 0.306181 1.275641
v 0.039175 0.306181 3.476607
v -2.991243 0.306181 1.772230
v 3.030418 0.306181 1.704377
v -3.010830 0.306181 0.000000
v 0.029211 1.138803 2.022178
v 0.008629 1.138803 1.275641
v -2.230379 1.138803 1.831233
v 2.259588 1.138804 1.780639
v -2.236355 1.138803 1.300938
v 2.253613 1.138804 1.250344
v 0.029211 2.008797 2.022178
v 0.008629 2.008797 1.275641
v -1.201693 2.008797 1.831233
v 1.228161 2.008797 1.780639
v -1.204928 2.008797 1.300938
v 1.224928 2.008797 1.250344
v 0.039175 0.000000 -3.476607
v -2.991243 -0.000000 -1.772230
v 3.030418 0.000000 -1.704377
v 0.029211 0.306181 -3.102077
v -2.230379 0.306181 -1.831233
v 2.259588 0.306181 -1.780639
v -2.236355 0.306181 -1.300938
v 2.253613 0.306181 -1.250344
v 0.008629 0.306181 -1.275641
v 0.039175 0.306181 -3.476607
v -2.991243 0.306181 -1.772230
v 3.030418 0.306181 -1.704377
v 0.029211 1.138803 -2.022178
v 0.008629 1.138803 -1.275641
v -2.230379 1.138803 -1.831233
v 2.259588 1.138804 -1.780639
v -2.236355 1.138803 -1.300938
v 2.253613 1.138804 -1.250344
v 0.029211 2.008797 -2.022178
v 0.008629 2.008797 -1.275641
v -1.201693 2.008797 -1.831233
v 1.228161 2.008797 -1.780639
v -1.204928 2.008797 -1.300938
v 1.224928 2.008797 -1.250344
vn -0.0113 -0.0000 -0.9999
vn -0.0000 1.0000 -0.0000
vn -0.4902 -0.0000 0.8716
vn 0.5097 -0.0000 0.8603
vn -0.0842 -0.0000 0.9964
vn 0.6447 0.7644 -0.0073
vn -0.0208 -0.0000 -0.9998
vn 0.9999 -0.0000 -0.0113
vn 0.3402 0.7447 0.5742
vn -0.9999 -0.0000 0.0113
vn 0.1975 -0.0000 0.9803
vn -0.0113 -0.0133 -0.9998
vn -0.6447 0.7644 0.0073
vn -0.0838 0.0991 0.9915
vn 1.0000 -0.0000 -0.0000
vn -0.0113 -0.0000 0.9999
vn -0.4902 -0.0000 -0.8716
vn 0.5097 -0.0000 -0.8603
vn -0.3248 0.7490 -0.5775
vn 0.6447 0.7644 0.0073
vn -0.0113 0.0134 0.9998
vn 0.9999 -0.0000 0.0113
vn 0.3402 0.7447 -0.5742
vn -0.9999 -0.0000 -0.0113
vn 0.1068 0.1266 -0.9862
vn -0.0113 -0.0133 0.9998
vn -0.6447 0.7644 -0.0073
vn -0.0838 0.0991 -0.9915
vn -0.9999 -0.0000 0.0111
vn -0.3248 0.7490 0.5775
vn 0.6458 0.7635 -0.0039
vn -0.0113 0.0134 -0.9998
vn 0.1077 -0.0000 0.9942
vn 0.1068 0.1266 0.9862
vn -0.6457 0.7635 0.0039
vn -0.1533 -0.0000 0.9882
vn -0.0842 -0.0000 -0.9964
vn 0.6458 0.7635 0.0039
vn -0.0208 -0.0000 0.9998
vn 0.1077 -0.0000 -0.9942
vn 0.1975 -0.0000 -0.9803
vn -0.6457 0.7635 -0.0039
vn -0.1533 -0.0000 -0.9882
vn -0.9999 -0.0000 -0.0111
vt 0.277635 0.870768
vt 0.276240 0.870753
vt 0.262446 0.878530
vt 0.261739 0.879734
vt 0.291260 0.878833
vt 0.291944 0.880033
vt 0.585202 0.768163
vt 0.276881 0.873673
vt 0.266599 0.879471
vt 0.589260 0.779284
vt 0.589456 0.757102
vt 0.287039 0.879687
vt 0.261678 0.887792
vt 0.590127 0.781511
vt 0.354601 0.891188
vt 0.266576 0.881885
vt 0.354601 0.870753
vt 0.590552 0.754632
vt 0.287012 0.882101
vt 0.354601 0.880970
vt 0.276793 0.881989
vt 0.276925 0.871967
vt 0.263131 0.879744
vt 0.290549 0.880033
vt 0.263069 0.887792
vt 0.591607 0.768162
vt 0.350812 0.880970
vt 0.592568 0.778207
vt 0.592809 0.758267
vt 0.350812 0.891188
vt 0.593622 0.780150
vt 0.594151 0.756474
vt 0.350812 0.870753
vt 0.401727 0.657219
vt 0.596081 0.768207
vt 0.405126 0.657242
vt 0.346852 0.880970
vt 0.402713 0.662802
vt 0.596340 0.774257
vt 0.402713 0.651741
vt 0.596450 0.762276
vt 0.346852 0.886495
vt 0.405126 0.662766
vt 0.598128 0.776116
vt 0.405126 0.651706
vt 0.598128 0.760719
vt 0.346852 0.875434
vt 0.277635 0.904820
vt 0.276240 0.904835
vt 0.262445 0.897058
vt 0.261733 0.895854
vt 0.291944 0.895555
vt 0.291260 0.896755
vt 0.276880 0.901914
vt 0.599248 0.767980
vt 0.266599 0.896117
vt 0.603306 0.756859
vt 0.287039 0.895901
vt 0.603503 0.779041
vt 0.604173 0.754632
vt 0.363470 0.870753
vt 0.266576 0.893702
vt 0.363470 0.891188
vt 0.287012 0.893486
vt 0.604599 0.781511
vt 0.276791 0.893598
vt 0.363470 0.880970
vt 0.276924 0.903620
vt 0.263130 0.895843
vt 0.290549 0.895555
vt 0.605653 0.767981
vt 0.359681 0.880970
vt 0.606614 0.757936
vt 0.606856 0.777877
vt 0.359681 0.870753
vt 0.607668 0.755993
vt 0.608198 0.779669
vt 0.359681 0.891188
vt 0.401727 0.669504
vt 0.610128 0.767936
vt 0.405126 0.669481
vt 0.355721 0.880970
vt 0.402713 0.663922
vt 0.610386 0.761885
vt 0.402713 0.674982
vt 0.610496 0.773867
vt 0.355721 0.875446
vt 0.405126 0.663957
vt 0.612174 0.760027
vt 0.405126 0.675018
vt 0.612174 0.775424
vt 0.355721 0.886507
s 0
usemtl SpaceShip1
f 8/15/1 16/27/1 10/20/1
f 10/21/2 33/62/2 8/16/2
f 1/2/3 12/23/3 2/3/3
f 3/5/4 11/22/4 1/1/4
f 5/10/5 15/26/5 17/28/5
f 5/9/2 11/22/2 4/8/2
f 6/12/2 11/22/2 13/24/2
f 8/16/2 12/23/2 5/9/2
f 20/32/6 24/41/6 18/29/6
f 16/27/7 25/42/7 22/37/7
f 9/18/8 18/29/8 6/11/8
f 6/11/9 15/26/9 4/7/9
f 10/20/1 20/33/1 9/17/1
f 5/10/10 19/31/10 8/14/10
f 22/36/2 24/40/2 26/45/2
f 22/36/2 23/38/2 21/34/2
f 15/26/11 24/41/11 21/35/11
f 16/27/12 26/47/12 20/33/12
f 17/28/13 25/44/13 19/31/13
f 15/26/14 23/39/14 17/28/14
f 13/24/2 38/70/2 9/19/2
f 38/70/15 3/6/15 29/52/15
f 10/21/2 34/64/2 35/66/2
f 40/72/16 33/61/16 35/67/16
f 37/69/17 27/49/17 28/50/17
f 36/68/18 29/53/18 27/48/18
f 31/57/19 39/71/19 30/55/19
f 36/68/2 31/56/2 30/54/2
f 32/58/2 36/68/2 30/54/2
f 37/69/2 33/62/2 31/56/2
f 48/86/20 44/77/20 42/74/20
f 40/72/21 49/87/21 43/75/21
f 42/74/22 34/65/22 32/59/22
f 39/71/23 32/59/23 30/55/23
f 44/78/16 35/67/16 34/63/16
f 43/76/24 31/57/24 33/60/24
f 48/85/2 46/81/2 50/90/2
f 47/83/2 46/81/2 45/79/2
f 39/71/25 48/86/25 42/74/25
f 50/92/26 40/72/26 44/78/26
f 49/89/27 41/73/27 43/76/27
f 47/84/28 39/71/28 41/73/28
f 14/25/29 7/13/29 12/23/29
f 8/15/1 19/30/1 16/27/1
f 35/66/2 33/62/2 10/21/2
f 33/62/2 14/25/2 8/16/2
f 1/2/3 11/22/3 12/23/3
f 3/5/4 13/24/4 11/22/4
f 5/10/30 4/7/30 15/26/30
f 5/9/2 12/23/2 11/22/2
f 6/12/2 4/8/2 11/22/2
f 8/16/2 14/25/2 12/23/2
f 20/32/31 26/46/31 24/41/31
f 16/27/32 19/30/32 25/42/32
f 9/18/8 20/32/8 18/29/8
f 6/11/33 18/29/33 15/26/33
f 10/20/1 16/27/1 20/33/1
f 5/10/10 17/28/10 19/31/10
f 22/36/2 21/34/2 24/40/2
f 22/36/2 25/43/2 23/38/2
f 15/26/34 18/29/34 24/41/34
f 16/27/7 22/37/7 26/47/7
f 17/28/35 23/39/35 25/44/35
f 15/26/36 21/35/36 23/39/36
f 32/58/2 34/64/2 38/70/2
f 34/64/2 9/19/2 38/70/2
f 9/19/2 6/12/2 13/24/2
f 38/70/15 13/24/15 3/6/15
f 10/21/2 9/19/2 34/64/2
f 40/72/16 43/75/16 33/61/16
f 37/69/17 36/68/17 27/49/17
f 36/68/18 38/70/18 29/53/18
f 31/57/37 41/73/37 39/71/37
f 36/68/2 37/69/2 31/56/2
f 32/58/2 38/70/2 36/68/2
f 37/69/2 14/25/2 33/62/2
f 48/86/38 50/91/38 44/77/38
f 40/72/39 46/82/39 49/87/39
f 42/74/22 44/77/22 34/65/22
f 39/71/40 42/74/40 32/59/40
f 44/78/16 40/72/16 35/67/16
f 43/76/24 41/73/24 31/57/24
f 48/85/2 45/79/2 46/81/2
f 47/83/2 49/88/2 46/81/2
f 39/71/41 45/80/41 48/86/41
f 50/92/39 46/82/39 40/72/39
f 49/89/42 47/84/42 41/73/42
f 47/84/43 45/80/43 39/71/43
f 14/25/44 37/69/44 28/51/44
f 7/13/29 2/4/29 12/23/29
f 14/25/44 28/51/44 7/13/44
