# Blender 3.5.0
# www.blender.org
mtllib HomeFuge_GatlingBullet.mtl
o Gat.Bullet
v -2.361872 0.026919 -0.139467
v 2.361872 -0.000000 -0.326947
v -2.361872 -0.093583 -0.055090
v 2.361872 -0.283149 0.163477
v -2.361872 0.039743 0.007080
v 2.361872 0.283149 0.163477
vn -0.0358 -0.5732 -0.8186
vn -0.0588 -0.4219 0.9047
vn 1.0000 -0.0000 -0.0000
vn 0.0022 0.9962 -0.0872
vn -1.0000 -0.0000 -0.0000
vn -0.0116 -0.8660 -0.5000
vn -0.0331 -0.0000 0.9995
vn -0.0281 0.8657 -0.4998
vt 1.000000 0.500000
vt -0.000000 0.500000
vt 0.750000 0.490000
vt 0.250000 0.490000
vt 1.000000 1.000000
vt -0.000000 1.000000
vt 0.957846 0.130000
vt 0.666667 0.500000
vt 0.457846 0.130000
vt 0.666667 1.000000
vt 0.542154 0.130000
vt 0.333333 0.500000
vt 0.042154 0.130000
vt 0.333333 1.000000
s 0
usemtl Gat.Bullet
f 2/5/1 3/8/1 1/1/1
f 4/10/2 5/12/2 3/8/2
f 4/9/3 2/4/3 6/13/3
f 5/12/4 2/6/4 1/2/4
f 1/3/5 3/7/5 5/11/5
f 2/5/6 4/10/6 3/8/6
f 4/10/7 6/14/7 5/12/7
f 5/12/8 6/14/8 2/6/8
