# Blender 3.5.0
# www.blender.org
mtllib HomeFuge_GatlingBullet.mtl
o Gat.Bullet
v -0.309747 0.007324 -0.037946
v 0.309747 0.000000 -0.088955
v -0.309747 -0.025462 -0.014989
v 0.309747 -0.077038 0.044478
v -0.309747 0.010813 0.001926
v 0.309747 0.077038 0.044478
vn -0.0740 -0.5720 -0.8169
vn -0.1213 -0.4195 0.8996
vn 1.0000 -0.0000 -0.0000
vn 0.0046 0.9962 -0.0872
vn -1.0000 -0.0000 -0.0000
vn -0.0241 -0.8658 -0.4999
vn -0.0685 -0.0000 0.9976
vn -0.0581 0.8646 -0.4992
vt 1.000000 0.500000
vt -0.000000 0.500000
vt 0.750000 0.490000
vt 0.250000 0.490000
vt 1.000000 1.000000
vt -0.000000 1.000000
vt 0.957846 0.130000
vt 0.666667 0.500000
vt 0.457846 0.130000
vt 0.666667 1.000000
vt 0.542154 0.130000
vt 0.333333 0.500000
vt 0.042154 0.130000
vt 0.333333 1.000000
s 0
usemtl Gat.Bullet
f 2/5/1 3/8/1 1/1/1
f 4/10/2 5/12/2 3/8/2
f 4/9/3 2/4/3 6/13/3
f 5/12/4 2/6/4 1/2/4
f 1/3/5 3/7/5 5/11/5
f 2/5/6 4/10/6 3/8/6
f 4/10/7 6/14/7 5/12/7
f 5/12/8 6/14/8 2/6/8
