# Blender 3.5.0
# www.blender.org
mtllib Trhuster.mtl
o Cone
v -5.165616 0.000000 -0.852766
v -5.165616 -0.602997 -0.602997
v -5.165616 -0.852766 0.000000
v -5.165616 -0.602997 0.602997
v -5.165616 0.000000 0.852766
v -5.165616 0.602997 0.602997
v -5.165616 0.852766 0.000000
v -5.165616 0.602997 -0.602997
v -0.212320 0.035051 0.000000
v -0.212320 0.000000 0.035051
v -0.212321 0.000000 -0.035051
v -0.212320 -0.035050 0.000000
v -0.212320 0.024785 -0.024785
v -0.212320 0.024785 0.024785
v -0.212320 -0.024784 0.024785
v -0.212320 -0.024784 -0.024785
v -5.165616 0.000000 -0.840459
v -5.165616 -0.594294 -0.594294
v -5.165616 -0.840458 0.000000
v -5.165616 -0.594294 0.594294
v -5.165616 0.000000 0.840459
v -5.165616 0.594294 0.594294
v -5.165616 0.840459 0.000000
v -5.165616 0.594294 -0.594294
v -0.212320 0.034545 0.000000
v -0.212320 0.000000 0.034545
v -0.212321 0.000000 -0.034545
v -0.212320 -0.034545 0.000000
v -0.212320 0.024427 -0.024427
v -0.212320 0.024427 0.024427
v -0.212320 -0.024427 0.024427
v -0.212320 -0.024427 -0.024427
vn 0.1508 -0.3783 -0.9133
vn 0.1508 -0.9133 -0.3783
vn 0.1508 -0.9133 0.3783
vn 0.1508 -0.3783 0.9133
vn 0.1508 0.3783 0.9133
vn 0.1508 0.9133 0.3783
vn 0.1508 0.9133 -0.3783
vn 0.1508 0.3783 -0.9133
vn -0.1486 0.3784 0.9136
vn -0.1486 0.9136 0.3784
vn -0.1486 0.9136 -0.3784
vn -0.1486 0.3784 -0.9136
vn -0.1486 -0.3784 -0.9136
vn -0.1486 -0.9136 -0.3784
vn -0.1486 -0.9136 0.3784
vn -0.1486 -0.3784 0.9136
vt 0.000277 0.955640
vt 0.374723 0.955640
vt 0.875277 0.955640
vt 0.124723 0.955640
vt 0.375277 0.955640
vt 0.999723 0.955640
vt 0.750277 0.955640
vt 0.499723 0.955640
vt 0.874723 0.955640
vt 0.500277 0.955640
vt 0.624723 0.955640
vt 0.625277 0.955640
vt 0.125277 0.955640
vt 0.749723 0.955640
vt 0.249723 0.955640
vt 0.250277 0.955640
vt 0.690058 0.000277
vt 0.184943 0.000277
vt 0.815058 0.000277
vt 0.559942 0.000277
vt 0.059942 0.000277
vt 0.315058 0.000277
vt 0.940057 0.000277
vt 0.434942 0.000277
vt 0.190058 0.000277
vt 0.309943 0.000277
vt 0.565057 0.000277
vt 0.684943 0.000277
vt 0.440057 0.000277
vt 0.809942 0.000277
vt 0.065057 0.000277
vt 0.934942 0.000277
vt 0.000277 0.955640
vt 0.374723 0.955640
vt 0.875277 0.955640
vt 0.124723 0.955640
vt 0.375277 0.955640
vt 0.999723 0.955640
vt 0.750277 0.955640
vt 0.499723 0.955640
vt 0.500277 0.955640
vt 0.874723 0.955640
vt 0.625277 0.955640
vt 0.624723 0.955640
vt 0.125277 0.955640
vt 0.749723 0.955640
vt 0.250277 0.955640
vt 0.249723 0.955640
vt 0.690058 0.000277
vt 0.184943 0.000277
vt 0.815058 0.000277
vt 0.559942 0.000277
vt 0.059942 0.000277
vt 0.315058 0.000277
vt 0.940057 0.000277
vt 0.434942 0.000277
vt 0.190058 0.000277
vt 0.309943 0.000277
vt 0.565057 0.000277
vt 0.684943 0.000277
vt 0.440057 0.000277
vt 0.809942 0.000277
vt 0.065057 0.000277
vt 0.934942 0.000277
s 0
usemtl Material.001
f 11/21/1 2/4/1 1/1/1
f 16/32/2 3/6/2 2/3/2
f 12/24/3 4/8/3 3/5/3
f 15/30/4 5/9/4 4/7/4
f 5/10/5 14/27/5 6/11/5
f 14/28/6 7/14/6 6/12/6
f 9/18/7 8/15/7 7/13/7
f 8/16/8 11/22/8 1/2/8
f 18/36/9 27/53/9 17/33/9
f 19/38/10 32/64/10 18/35/10
f 20/40/11 28/56/11 19/37/11
f 21/42/12 31/62/12 20/39/12
f 22/44/13 26/52/13 21/41/13
f 23/46/14 30/60/14 22/43/14
f 24/48/15 25/50/15 23/45/15
f 17/34/16 29/58/16 24/47/16
f 11/21/1 16/31/1 2/4/1
f 16/32/2 12/23/2 3/6/2
f 12/24/3 15/29/3 4/8/3
f 15/30/4 10/19/4 5/9/4
f 5/10/5 10/20/5 14/27/5
f 14/28/6 9/17/6 7/14/6
f 9/18/7 13/25/7 8/15/7
f 8/16/8 13/26/8 11/22/8
f 18/36/9 32/63/9 27/53/9
f 19/38/10 28/55/10 32/64/10
f 20/40/11 31/61/11 28/56/11
f 21/42/12 26/51/12 31/62/12
f 22/44/13 30/59/13 26/52/13
f 23/46/14 25/49/14 30/60/14
f 24/48/15 29/57/15 25/50/15
f 17/34/16 27/54/16 29/58/16
