<svg xmlns="http://www.w3.org/2000/svg" viewBox="0 0 181.4084 181.4337"><defs><style>.cls-1{fill:#8bd0e0;}.cls-2{fill:none;stroke:#8bd0e0;stroke-miterlimit:10;stroke-width:4px;}</style></defs><title>AimCurser</title><g id="Ebene_2" data-name="Ebene 2"><path class="cls-1" d="M-.08,90.71c.2942,37.7616,23.9318,72.0683,59.4566,85.2285,35.8477,13.28,77.5489,1.8326,101.6435-27.8047,24.0238-29.55,27.1347-72.1879,7.1859-104.7468A91.7156,91.7156,0,0,0,72.9168,1.6723C30.7313,9.9663.2526,48.0194-.08,90.71c-.0251,3.2181,4.9749,3.2213,5,0C5.2,54.8168,27.9043,21.8806,61.9562,9.85A86.6838,86.6838,0,0,1,156.654,35.8156c23.1717,27.6611,26.1692,68.2686,7.5729,99.1325-18.5346,30.7614-55.4158,47.0568-90.6458,39.8475C33.8573,166.6667,5.2343,131.0623,4.92,90.71,4.8949,87.494-.1051,87.4865-.08,90.71Z" transform="translate(0.0801 0.0124)"/><path class="cls-2" d="M83.2191,73.2409,68.0414,99.5294a8.65,8.65,0,0,0,7.4909,12.9746h30.3554a8.65,8.65,0,0,0,7.4909-12.9746L98.2009,73.2409A8.65,8.65,0,0,0,83.2191,73.2409Z" transform="translate(0.0801 0.0124)"/></g></svg>